<svg width="120" height="120" viewBox="0 0 120 120" fill="none" xmlns="http://www.w3.org/2000/svg">
  <!-- Outer nodes -->
  <circle cx="20" cy="60" r="7" fill="#3EC1D3" stroke="#1976D2" stroke-width="2"/>
  <circle cx="60" cy="20" r="7" fill="#3EC1D3" stroke="#1976D2" stroke-width="2"/>
  <circle cx="100" cy="60" r="7" fill="#3EC1D3" stroke="#1976D2" stroke-width="2"/>
  <circle cx="60" cy="100" r="7" fill="#3EC1D3" stroke="#1976D2" stroke-width="2"/>
  <!-- Inner node -->
  <circle cx="60" cy="60" r="12" fill="#1976D2" stroke="#145A8C" stroke-width="3"/>
  <!-- Connecting lines -->
  <line x1="60" y1="32" x2="60" y2="48" stroke="#90CAF9" stroke-width="3"/>
  <line x1="60" y1="72" x2="60" y2="88" stroke="#90CAF9" stroke-width="3"/>
  <line x1="32" y1="60" x2="48" y2="60" stroke="#90CAF9" stroke-width="3"/>
  <line x1="72" y1="60" x2="88" y2="60" stroke="#90CAF9" stroke-width="3"/>
  <!-- Diagonal connections for techy feel -->
  <line x1="67" y1="52" x2="92" y2="60" stroke="#90CAF9" stroke-width="2"/>
  <line x1="53" y1="52" x2="28" y2="60" stroke="#90CAF9" stroke-width="2"/>
  <line x1="67" y1="68" x2="92" y2="60" stroke="#90CAF9" stroke-width="2"/>
  <line x1="53" y1="68" x2="28" y2="60" stroke="#90CAF9" stroke-width="2"/>
  <line x1="60" y1="32" x2="100" y2="60" stroke="#90CAF9" stroke-width="1.5"/>
  <line x1="60" y1="32" x2="20" y2="60" stroke="#90CAF9" stroke-width="1.5"/>
  <line x1="60" y1="88" x2="100" y2="60" stroke="#90CAF9" stroke-width="1.5"/>
  <line x1="60" y1="88" x2="20" y2="60" stroke="#90CAF9" stroke-width="1.5"/>
</svg>